<svg width="252" height="42" viewBox="0 0 252 42" fill="none" xmlns="http://www.w3.org/2000/svg">
<g filter="url(#filter0_d_168_1271)">
<path d="M24.8163 31.9437H24.2534C24.2534 31.9377 24.2506 31.9318 24.2495 31.9261L24.2341 31.8573C24.2242 31.812 24.2135 31.7671 24.2025 31.7226C24.1978 31.7016 24.1926 31.6806 24.1875 31.6597C24.1729 31.6009 24.1575 31.5422 24.1417 31.4834L24.137 31.4666C24.1196 31.4029 24.1014 31.3396 24.0825 31.2765L24.0635 31.2155C24.0505 31.172 24.0367 31.129 24.0241 31.086C24.0166 31.0624 24.0087 31.0392 24.0012 31.016C23.9874 30.9744 23.9731 30.9329 23.9585 30.8917C23.951 30.87 23.9431 30.8479 23.9356 30.8266C23.9172 30.775 23.8983 30.7237 23.8788 30.6728C23.8745 30.6619 23.8709 30.6515 23.8666 30.6406C23.8437 30.5807 23.8196 30.5212 23.7951 30.4617C23.7864 30.44 23.7773 30.4187 23.7683 30.3974C23.7517 30.3599 23.7351 30.3188 23.7181 30.2798L23.6862 30.2076C23.6696 30.1702 23.6526 30.1328 23.6352 30.0953C23.6246 30.0721 23.6135 30.0486 23.6025 30.0254C23.5823 29.9823 23.563 29.9397 23.5405 29.8974C23.5322 29.8813 23.5247 29.8648 23.5164 29.8483C23.4884 29.7926 23.4596 29.7361 23.4304 29.6822L23.3909 29.6122L23.3352 29.5108L23.2918 29.4359C23.2736 29.4045 23.2555 29.373 23.2369 29.3416C23.2223 29.3162 23.2073 29.2907 23.1923 29.2668C23.1718 29.2327 23.1529 29.1994 23.1304 29.1657L23.0735 29.0744C23.0467 29.0325 23.0198 28.9902 22.9922 28.9487C22.9748 28.9225 22.9575 28.8966 22.9397 28.8708C22.9219 28.845 22.9026 28.8154 22.8836 28.7881C22.8647 28.7608 22.8442 28.7335 22.8268 28.7065C22.8094 28.6796 22.7905 28.6553 22.7719 28.6317C22.7534 28.6081 22.7324 28.5767 22.7123 28.5493L22.6567 28.4745C22.6172 28.4247 22.5809 28.3749 22.5422 28.3248L22.4881 28.2563C22.4652 28.2275 22.4415 28.199 22.4182 28.1706L22.3661 28.1077C22.342 28.0789 22.3176 28.0505 22.2931 28.0217L22.2418 27.9625L22.1652 27.8757L22.1198 27.8256C22.0254 27.7219 21.9287 27.6197 21.8297 27.5202L21.7862 27.4764L21.6954 27.3877L21.6508 27.345C21.6192 27.3147 21.5877 27.2848 21.5557 27.2552L21.5229 27.2253C21.4112 27.1224 21.2963 27.0221 21.1795 26.9259L21.1475 26.8993C21.1115 26.8694 21.0752 26.8398 21.0386 26.8106L21.0023 26.7814C20.9628 26.7515 20.9269 26.7219 20.8886 26.6923L20.8692 26.6777C20.7401 26.5789 20.6079 26.4828 20.4745 26.3903L20.4559 26.3772C20.4137 26.3484 20.3714 26.32 20.3288 26.2919L20.3008 26.2736C20.2574 26.2447 20.2135 26.2167 20.1697 26.1886L20.1622 26.1841C20.017 26.0921 19.8689 26.0039 19.7181 25.9195L19.7122 25.9158C19.6645 25.8892 19.6167 25.8634 19.5689 25.8376L19.548 25.8263C19.2938 25.6904 19.0327 25.5656 18.7648 25.4521L18.7482 25.445C18.6776 25.415 18.6065 25.3862 18.5347 25.3578H19.9475C20.1776 25.3578 20.3643 25.1067 20.3643 24.7964C20.3643 24.4862 20.1776 24.2351 19.9475 24.2351H19.5267C19.5527 24.1722 19.5816 24.1011 19.6127 24.021C20.0106 23.786 20.7109 23.2852 21.4057 22.3653L21.4112 22.3582C21.4639 22.2894 21.5156 22.2181 21.5664 22.1445L21.5766 22.1299C21.6271 22.0577 21.6777 21.9832 21.7274 21.9054L21.7408 21.8848C21.7645 21.8474 21.7882 21.81 21.8119 21.7725C21.8119 21.7725 21.8119 21.7695 21.8147 21.7677C21.8391 21.7302 21.8632 21.6891 21.8873 21.649L21.9027 21.6232C21.9232 21.5888 21.9441 21.5536 21.9643 21.5181C21.9682 21.5117 21.9722 21.5053 21.9757 21.4986C21.999 21.4582 22.0223 21.417 22.0452 21.3755L22.061 21.3466C22.0799 21.3122 22.0985 21.2774 22.117 21.2422C22.1226 21.2325 22.1281 21.2224 22.1332 21.2123C22.1553 21.17 22.1774 21.1273 22.1995 21.0839L22.2149 21.0536C22.2323 21.0184 22.2501 20.9825 22.2674 20.9466L22.2864 20.9092C22.3077 20.865 22.3286 20.8201 22.3495 20.7748L22.3626 20.746C22.3799 20.7086 22.3969 20.6711 22.4139 20.6337L22.434 20.5888C22.4537 20.5435 22.4735 20.4979 22.4924 20.4518C22.496 20.4436 22.4995 20.435 22.5027 20.4268C22.5205 20.3845 22.5378 20.3414 22.5552 20.298L22.5749 20.2486C22.5911 20.2074 22.6073 20.1659 22.6231 20.1244L22.6349 20.0929C22.6535 20.0435 22.6716 19.993 22.6898 19.9432L22.7088 19.8901C22.723 19.8504 22.7368 19.81 22.7506 19.7696C22.7557 19.7546 22.7609 19.7396 22.7656 19.7247C22.783 19.673 22.8003 19.6203 22.8173 19.5675C22.8228 19.5492 22.8288 19.5301 22.8343 19.5128L22.8738 19.3897C22.8789 19.3718 22.8844 19.3523 22.8896 19.3362C22.9057 19.2819 22.9219 19.2266 22.9373 19.1708C22.9424 19.1532 22.9472 19.1352 22.9519 19.1173C22.9638 19.0742 22.9756 19.0312 22.9871 18.9874C22.9922 18.9676 22.9973 18.9477 23.0028 18.9279C23.0175 18.8703 23.0321 18.8123 23.0463 18.7535L23.0581 18.7045C23.0692 18.6577 23.0802 18.6105 23.0909 18.563L23.1051 18.4994C23.1185 18.4384 23.1319 18.3774 23.1446 18.3153C23.1473 18.3033 23.1497 18.2909 23.1521 18.2778C23.1631 18.2243 23.1738 18.1701 23.184 18.1158C23.1884 18.0937 23.1923 18.0716 23.1967 18.0496C23.2069 17.9938 23.2168 17.9373 23.2267 17.8815C23.2286 17.8695 23.231 17.8579 23.233 17.8463C23.244 17.7805 23.2548 17.7141 23.2654 17.6472C23.2689 17.6248 23.2725 17.6023 23.2756 17.5795C23.2839 17.5252 23.2918 17.4706 23.2997 17.4152L23.3068 17.3643C23.3163 17.2955 23.3254 17.2262 23.334 17.1559C23.3368 17.1338 23.3392 17.1117 23.3419 17.0892C23.3488 17.0334 23.3551 16.9772 23.3609 16.9208C23.3633 16.9006 23.3656 16.8808 23.3676 16.8606C23.3752 16.7882 23.3823 16.7153 23.3889 16.6417C23.3889 16.6211 23.3925 16.6005 23.394 16.5795C23.3992 16.5204 23.4043 16.4609 23.4086 16.401C23.4086 16.3789 23.4122 16.3569 23.4138 16.3348C23.4193 16.2584 23.4244 16.1816 23.4292 16.1042C23.4292 16.0867 23.4292 16.0668 23.4319 16.0511C23.4355 15.9867 23.439 15.922 23.4418 15.8569C23.4418 15.8333 23.4418 15.8097 23.445 15.7861C23.4481 15.7057 23.4513 15.6248 23.4537 15.5429C23.4537 15.5316 23.4537 15.52 23.4537 15.5084C23.4558 15.4356 23.4573 15.362 23.4584 15.2876C23.4584 15.2633 23.4584 15.239 23.4584 15.2147C23.4584 15.1348 23.4584 15.0545 23.4584 14.9737V14.9549C23.4584 14.8689 23.4584 14.7817 23.4584 14.693V14.6181C23.4584 14.5433 23.4552 14.4647 23.4533 14.3868V14.3445C23.4505 14.2547 23.4469 14.1638 23.4434 14.0725C23.4434 14.0489 23.441 14.0249 23.4402 14.0014C23.4368 13.9245 23.4329 13.8472 23.4284 13.7693C23.4284 13.7502 23.4284 13.7319 23.4252 13.7113C23.4197 13.6178 23.4136 13.5235 23.4071 13.4284L23.4023 13.3622C23.3964 13.2828 23.3905 13.2031 23.3838 13.1226C23.3838 13.0994 23.3802 13.0762 23.3783 13.053C23.37 12.9557 23.3609 12.8573 23.3514 12.7585C23.3514 12.7398 23.3475 12.7211 23.3459 12.702C23.3376 12.6178 23.3285 12.5328 23.3194 12.4471C23.3167 12.4213 23.3139 12.3959 23.3108 12.37C23.2997 12.2682 23.2879 12.1661 23.2752 12.0624C23.2752 12.0497 23.2717 12.037 23.2701 12.025C23.2588 11.9322 23.2468 11.8389 23.2342 11.7451C23.2302 11.7174 23.2267 11.6897 23.2227 11.662C23.208 11.5557 23.1929 11.4485 23.1773 11.3405C21.5983 0.684277 10.4088 2.41366 10.4088 2.41366L10.7672 4.70328L4 11.4808L4.29567 14.0979L6.85917 15.5949C6.97345 15.3195 7.12017 15.0573 7.29655 14.8131C8.95055 13.0044 12.1595 11.5845 13.0781 11.29C13.262 11.2312 13.3666 11.2016 13.3666 11.2016C8.97266 16.593 9.47241 22.7695 9.66821 24.2418C9.46452 24.2792 9.30701 24.5124 9.30701 24.7968C9.30701 25.1067 9.49373 25.3582 9.72387 25.3582H11.1367C8.78699 26.2906 6.92185 28.0665 5.94848 30.2982C5.94734 30.3012 5.94602 30.3042 5.94454 30.3072C5.87269 30.4728 5.80585 30.6409 5.74401 30.8113C5.74411 30.813 5.74411 30.8148 5.74401 30.8165C5.72743 30.8629 5.71124 30.9093 5.69545 30.9561C5.68953 30.9729 5.68361 30.9898 5.67808 31.007C5.66387 31.0489 5.65071 31.0912 5.63861 31.1339C5.6315 31.1556 5.62479 31.1777 5.61808 31.1994C5.60545 31.2394 5.59321 31.2798 5.58137 31.3202L5.56005 31.3951C5.549 31.4325 5.53795 31.4726 5.52768 31.5115C5.52018 31.5392 5.51308 31.5665 5.50597 31.5942C5.4965 31.6316 5.48663 31.669 5.47755 31.7065C5.46847 31.7439 5.45978 31.7813 5.4511 31.821C5.44241 31.8606 5.43136 31.9071 5.42189 31.9505H4.85858C4.75026 31.9482 4.64255 31.9665 4.54178 32.0042C4.44101 32.0419 4.3492 32.0984 4.27175 32.1702C4.19429 32.242 4.13275 32.3278 4.09074 32.4225C4.04872 32.5172 4.02708 32.6189 4.02708 32.7216C4.02708 32.8243 4.04872 32.926 4.09074 33.0207C4.13275 33.1154 4.19429 33.2011 4.27175 33.273C4.3492 33.3448 4.44101 33.4012 4.54178 33.439C4.64255 33.4767 4.75026 33.495 4.85858 33.4927H24.8234C24.9318 33.495 25.0395 33.4767 25.1402 33.439C25.241 33.4012 25.3328 33.3448 25.4103 33.273C25.4877 33.2011 25.5493 33.1154 25.5913 33.0207C25.6333 32.926 25.6549 32.8243 25.6549 32.7216C25.6549 32.6189 25.6333 32.5172 25.5913 32.4225C25.5493 32.3278 25.4877 32.242 25.4103 32.1702C25.3328 32.0984 25.241 32.0419 25.1402 32.0042C25.0395 31.9665 24.9318 31.9482 24.8234 31.9505L24.8163 31.9437Z" fill="#595653"/>
<path d="M48.2035 31.9437H47.6406C47.6406 31.9377 47.6379 31.9318 47.6367 31.9261L47.6213 31.8573C47.6114 31.812 47.6007 31.7671 47.5897 31.7226C47.585 31.7016 47.5798 31.6806 47.5747 31.6597C47.5601 31.6009 47.5447 31.5422 47.5289 31.4834L47.5242 31.4666C47.5068 31.4029 47.4886 31.3396 47.4697 31.2765L47.4507 31.2155C47.4377 31.172 47.4239 31.129 47.4113 31.086C47.4038 31.0624 47.3959 31.0392 47.3884 31.016C47.3746 30.9744 47.3603 30.9329 47.3457 30.8917C47.3382 30.87 47.3303 30.8479 47.3228 30.8266C47.3044 30.775 47.2855 30.7237 47.266 30.6728C47.2617 30.6619 47.2581 30.6515 47.2538 30.6406C47.2309 30.5807 47.2068 30.5212 47.1823 30.4617C47.1736 30.44 47.1646 30.4187 47.1555 30.3974C47.1389 30.3599 47.1223 30.3188 47.1053 30.2798L47.0734 30.2076C47.0568 30.1702 47.0398 30.1328 47.0224 30.0953C47.0118 30.0721 47.0007 30.0486 46.9897 30.0254C46.9695 29.9823 46.9502 29.9397 46.9277 29.8974C46.9194 29.8813 46.9119 29.8648 46.9036 29.8483C46.8756 29.7926 46.8468 29.7361 46.8176 29.6822L46.7781 29.6122L46.7224 29.5108L46.679 29.4359C46.6608 29.4045 46.6427 29.373 46.6241 29.3416C46.6095 29.3162 46.5945 29.2907 46.5795 29.2668C46.559 29.2327 46.5401 29.1994 46.5176 29.1657L46.4607 29.0744C46.4339 29.0325 46.407 28.9902 46.3794 28.9487C46.362 28.9225 46.3447 28.8966 46.3269 28.8708C46.3091 28.845 46.2898 28.8154 46.2708 28.7881C46.2519 28.7608 46.2314 28.7335 46.214 28.7065C46.1966 28.6796 46.1777 28.6553 46.1591 28.6317C46.1406 28.6081 46.1196 28.5767 46.0995 28.5493L46.0439 28.4745C46.0044 28.4247 45.9681 28.3749 45.9294 28.3248L45.8753 28.2563C45.8524 28.2275 45.8287 28.199 45.8054 28.1706L45.7533 28.1077C45.7292 28.0789 45.7048 28.0505 45.6803 28.0217L45.629 27.9625L45.5524 27.8757L45.507 27.8256C45.4127 27.7219 45.3159 27.6197 45.2169 27.5202L45.1734 27.4764L45.0826 27.3877L45.038 27.345C45.0065 27.3147 44.9749 27.2848 44.9429 27.2552L44.9101 27.2253C44.7984 27.1224 44.6836 27.0221 44.5667 26.9259L44.5347 26.8993C44.4987 26.8694 44.4624 26.8398 44.4258 26.8106L44.3895 26.7814C44.35 26.7515 44.3141 26.7219 44.2758 26.6923L44.2564 26.6777C44.1273 26.5789 43.9951 26.4828 43.8617 26.3903L43.8431 26.3772C43.8009 26.3484 43.7587 26.32 43.716 26.2919L43.688 26.2736C43.6446 26.2447 43.6008 26.2167 43.5569 26.1886L43.5494 26.1841C43.4042 26.0921 43.2561 26.0039 43.1053 25.9195L43.0994 25.9158C43.0517 25.8892 43.0039 25.8634 42.9561 25.8376L42.9352 25.8263C42.681 25.6904 42.4199 25.5656 42.152 25.4521L42.1354 25.445C42.0648 25.415 41.9937 25.3862 41.9219 25.3578H43.3347C43.5648 25.3578 43.7515 25.1067 43.7515 24.7964C43.7515 24.4862 43.5648 24.2351 43.3347 24.2351H42.9139C42.9399 24.1722 42.9688 24.1011 42.9999 24.021C43.3979 23.786 44.0981 23.2852 44.7929 22.3653L44.7984 22.3582C44.8511 22.2894 44.9028 22.2181 44.9536 22.1445L44.9638 22.1299C45.0144 22.0577 45.0649 21.9832 45.1146 21.9054L45.128 21.8848C45.1517 21.8474 45.1754 21.81 45.1991 21.7725C45.1991 21.7725 45.1991 21.7695 45.2019 21.7677C45.2263 21.7302 45.2504 21.6891 45.2745 21.649L45.2899 21.6232C45.3104 21.5888 45.3313 21.5536 45.3515 21.5181C45.3554 21.5117 45.3594 21.5053 45.3629 21.4986C45.3862 21.4582 45.4095 21.417 45.4324 21.3755L45.4482 21.3466C45.4671 21.3122 45.4857 21.2774 45.5042 21.2422C45.5098 21.2325 45.5153 21.2224 45.5204 21.2123C45.5425 21.17 45.5646 21.1273 45.5867 21.0839L45.6021 21.0536C45.6195 21.0184 45.6373 20.9825 45.6546 20.9466L45.6736 20.9092C45.6949 20.865 45.7158 20.8201 45.7367 20.7748L45.7498 20.746C45.7671 20.7086 45.7841 20.6711 45.8011 20.6337L45.8212 20.5888C45.841 20.5435 45.8607 20.4979 45.8796 20.4518C45.8832 20.4436 45.8867 20.435 45.8899 20.4268C45.9077 20.3845 45.925 20.3414 45.9424 20.298L45.9621 20.2486C45.9783 20.2074 45.9945 20.1659 46.0103 20.1244L46.0221 20.0929C46.0407 20.0435 46.0589 19.993 46.077 19.9432L46.096 19.8901C46.1102 19.8504 46.124 19.81 46.1378 19.7696C46.1429 19.7546 46.1481 19.7396 46.1528 19.7247C46.1702 19.673 46.1875 19.6203 46.2045 19.5675C46.21 19.5492 46.216 19.5301 46.2215 19.5128L46.261 19.3897C46.2661 19.3718 46.2716 19.3523 46.2768 19.3362C46.2929 19.2819 46.3091 19.2266 46.3245 19.1708C46.3297 19.1532 46.3344 19.1352 46.3391 19.1173C46.351 19.0742 46.3628 19.0312 46.3743 18.9874C46.3794 18.9676 46.3845 18.9477 46.3901 18.9279C46.4047 18.8703 46.4193 18.8123 46.4335 18.7535L46.4453 18.7045C46.4564 18.6577 46.4674 18.6105 46.4781 18.563L46.4923 18.4994C46.5057 18.4384 46.5191 18.3774 46.5318 18.3153C46.5345 18.3033 46.5369 18.2909 46.5393 18.2778C46.5503 18.2243 46.561 18.1701 46.5712 18.1158C46.5756 18.0937 46.5795 18.0716 46.5839 18.0496C46.5941 17.9938 46.604 17.9373 46.6139 17.8815C46.6159 17.8695 46.6182 17.8579 46.6202 17.8463C46.6312 17.7805 46.642 17.7141 46.6526 17.6472C46.6561 17.6248 46.6597 17.6023 46.6628 17.5795C46.6711 17.5252 46.679 17.4706 46.6869 17.4152L46.694 17.3643C46.7035 17.2955 46.7126 17.2262 46.7212 17.1559C46.724 17.1338 46.7264 17.1117 46.7291 17.0892C46.736 17.0334 46.7423 16.9772 46.7481 16.9208C46.7505 16.9006 46.7528 16.8808 46.7548 16.8606C46.7624 16.7882 46.7695 16.7153 46.7761 16.6417C46.7761 16.6211 46.7797 16.6005 46.7813 16.5795C46.7864 16.5204 46.7915 16.4609 46.7959 16.401C46.7959 16.3789 46.7994 16.3569 46.801 16.3348C46.8065 16.2584 46.8116 16.1816 46.8164 16.1042C46.8164 16.0867 46.8164 16.0668 46.8191 16.0511C46.8227 15.9867 46.8263 15.922 46.829 15.8569C46.829 15.8333 46.829 15.8097 46.8322 15.7861C46.8353 15.7057 46.8385 15.6248 46.8409 15.5429C46.8409 15.5316 46.8409 15.52 46.8409 15.5084C46.843 15.4356 46.8445 15.362 46.8456 15.2876C46.8456 15.2633 46.8456 15.239 46.8456 15.2147C46.8456 15.1348 46.8456 15.0545 46.8456 14.9737V14.9549C46.8456 14.8689 46.8456 14.7817 46.8456 14.693V14.6181C46.8456 14.5433 46.8424 14.4647 46.8405 14.3868V14.3445C46.8377 14.2547 46.8341 14.1638 46.8306 14.0725C46.8306 14.0489 46.8282 14.0249 46.8274 14.0014C46.824 13.9245 46.8201 13.8472 46.8156 13.7693C46.8156 13.7502 46.8156 13.7319 46.8124 13.7113C46.8069 13.6178 46.8009 13.5235 46.7943 13.4284L46.7895 13.3622C46.7836 13.2828 46.7777 13.2031 46.771 13.1226C46.771 13.0994 46.7674 13.0762 46.7655 13.053C46.7572 12.9557 46.7481 12.8573 46.7386 12.7585C46.7386 12.7398 46.7347 12.7211 46.7331 12.702C46.7248 12.6178 46.7157 12.5328 46.7066 12.4471C46.7039 12.4213 46.7011 12.3959 46.698 12.37C46.6869 12.2682 46.6751 12.1661 46.6624 12.0624C46.6624 12.0497 46.6589 12.037 46.6573 12.025C46.646 11.9322 46.634 11.8389 46.6214 11.7451C46.6174 11.7174 46.6139 11.6897 46.6099 11.662C46.5952 11.5557 46.5801 11.4485 46.5645 11.3405C44.9855 0.684277 33.796 2.41366 33.796 2.41366L34.1544 4.70328L27.3872 11.4808L27.6829 14.0979L30.2464 15.5949C30.3607 15.3195 30.5074 15.0573 30.6838 14.8131C32.3378 13.0044 35.5467 11.5845 36.4653 11.29C36.6492 11.2312 36.7538 11.2016 36.7538 11.2016C32.3599 16.593 32.8596 22.7695 33.0554 24.2418C32.8517 24.2792 32.6942 24.5124 32.6942 24.7968C32.6942 25.1067 32.8809 25.3582 33.1111 25.3582H34.5239C32.1742 26.2906 30.3091 28.0665 29.3357 30.2982C29.3345 30.3012 29.3332 30.3042 29.3317 30.3072C29.2599 30.4728 29.1931 30.6409 29.1312 30.8113C29.1313 30.813 29.1313 30.8148 29.1312 30.8165C29.1146 30.8629 29.0984 30.9093 29.0827 30.9561C29.0767 30.9729 29.0708 30.9898 29.0653 31.007C29.0511 31.0489 29.0379 31.0912 29.0258 31.1339C29.0187 31.1556 29.012 31.1777 29.0053 31.1994C28.9927 31.2394 28.9804 31.2798 28.9686 31.3202L28.9473 31.3951C28.9362 31.4325 28.9252 31.4726 28.9149 31.5115C28.9074 31.5392 28.9003 31.5665 28.8932 31.5942C28.8837 31.6316 28.8738 31.669 28.8648 31.7065C28.8557 31.7439 28.847 31.7813 28.8383 31.821C28.8296 31.8606 28.8186 31.9071 28.8091 31.9505H28.2458C28.1375 31.9482 28.0298 31.9665 27.929 32.0042C27.8282 32.0419 27.7364 32.0984 27.659 32.1702C27.5815 32.242 27.52 32.3278 27.4779 32.4225C27.4359 32.5172 27.4143 32.6189 27.4143 32.7216C27.4143 32.8243 27.4359 32.926 27.4779 33.0207C27.52 33.1154 27.5815 33.2011 27.659 33.273C27.7364 33.3448 27.8282 33.4012 27.929 33.439C28.0298 33.4767 28.1375 33.495 28.2458 33.4927H48.2106C48.319 33.495 48.4267 33.4767 48.5274 33.439C48.6282 33.4012 48.72 33.3448 48.7975 33.273C48.8749 33.2011 48.9365 33.1154 48.9785 33.0207C49.0205 32.926 49.0421 32.8243 49.0421 32.7216C49.0421 32.6189 49.0205 32.5172 48.9785 32.4225C48.9365 32.3278 48.8749 32.242 48.7975 32.1702C48.72 32.0984 48.6282 32.0419 48.5274 32.0042C48.4267 31.9665 48.319 31.9482 48.2106 31.9505L48.2035 31.9437Z" fill="#595653"/>
<path d="M71.5912 31.9437H71.0283C71.0283 31.9377 71.0256 31.9318 71.0244 31.9261L71.009 31.8573C70.9991 31.812 70.9884 31.7671 70.9774 31.7226C70.9727 31.7016 70.9675 31.6806 70.9624 31.6597C70.9478 31.6009 70.9324 31.5422 70.9166 31.4834L70.9119 31.4666C70.8945 31.4029 70.8763 31.3396 70.8574 31.2765L70.8384 31.2155C70.8254 31.172 70.8116 31.129 70.799 31.086C70.7915 31.0624 70.7836 31.0392 70.7761 31.016C70.7623 30.9744 70.748 30.9329 70.7334 30.8917C70.7259 30.87 70.718 30.8479 70.7105 30.8266C70.6921 30.775 70.6732 30.7237 70.6537 30.6728C70.6494 30.6619 70.6458 30.6515 70.6415 30.6406C70.6186 30.5807 70.5945 30.5212 70.57 30.4617C70.5613 30.44 70.5522 30.4187 70.5432 30.3974C70.5266 30.3599 70.51 30.3188 70.493 30.2798L70.4611 30.2076C70.4445 30.1702 70.4275 30.1328 70.4101 30.0953C70.3995 30.0721 70.3884 30.0486 70.3774 30.0254C70.3572 29.9823 70.3379 29.9397 70.3154 29.8974C70.3071 29.8813 70.2996 29.8648 70.2913 29.8483C70.2633 29.7926 70.2345 29.7361 70.2053 29.6822L70.1658 29.6122L70.1101 29.5108L70.0667 29.4359C70.0485 29.4045 70.0304 29.373 70.0118 29.3416C69.9972 29.3162 69.9822 29.2907 69.9672 29.2668C69.9467 29.2327 69.9278 29.1994 69.9053 29.1657L69.8484 29.0744C69.8216 29.0325 69.7947 28.9902 69.7671 28.9487C69.7497 28.9225 69.7324 28.8966 69.7146 28.8708C69.6968 28.845 69.6775 28.8154 69.6585 28.7881C69.6396 28.7608 69.6191 28.7335 69.6017 28.7065C69.5843 28.6796 69.5654 28.6553 69.5468 28.6317C69.5283 28.6081 69.5073 28.5767 69.4872 28.5493L69.4316 28.4745C69.3921 28.4247 69.3558 28.3749 69.3171 28.3248L69.263 28.2563C69.2401 28.2275 69.2164 28.199 69.1931 28.1706L69.141 28.1077C69.1169 28.0789 69.0925 28.0505 69.068 28.0217L69.0167 27.9625L68.9401 27.8757L68.8947 27.8256C68.8003 27.7219 68.7036 27.6197 68.6046 27.5202L68.5611 27.4764L68.4703 27.3877L68.4257 27.345C68.3942 27.3147 68.3626 27.2848 68.3306 27.2552L68.2978 27.2253C68.1861 27.1224 68.0712 27.0221 67.9544 26.9259L67.9224 26.8993C67.8864 26.8694 67.8501 26.8398 67.8135 26.8106L67.7772 26.7814C67.7377 26.7515 67.7018 26.7219 67.6635 26.6923L67.6441 26.6777C67.515 26.5789 67.3828 26.4828 67.2494 26.3903L67.2308 26.3772C67.1886 26.3484 67.1463 26.32 67.1037 26.2919L67.0757 26.2736C67.0323 26.2447 66.9884 26.2167 66.9446 26.1886L66.9371 26.1841C66.7919 26.0921 66.6438 26.0039 66.493 25.9195L66.4871 25.9158C66.4394 25.8892 66.3916 25.8634 66.3438 25.8376L66.3229 25.8263C66.0687 25.6904 65.8076 25.5656 65.5397 25.4521L65.5231 25.445C65.4525 25.415 65.3814 25.3862 65.3096 25.3578H66.7224C66.9525 25.3578 67.1392 25.1067 67.1392 24.7964C67.1392 24.4862 66.9525 24.2351 66.7224 24.2351H66.3016C66.3276 24.1722 66.3565 24.1011 66.3876 24.021C66.7855 23.786 67.4858 23.2852 68.1806 22.3653L68.1861 22.3582C68.2388 22.2894 68.2905 22.2181 68.3413 22.1445L68.3515 22.1299C68.402 22.0577 68.4526 21.9832 68.5023 21.9054L68.5157 21.8848C68.5394 21.8474 68.5631 21.81 68.5868 21.7725C68.5868 21.7725 68.5868 21.7695 68.5896 21.7677C68.614 21.7302 68.6381 21.6891 68.6622 21.649L68.6776 21.6232C68.6981 21.5888 68.719 21.5536 68.7392 21.5181C68.7431 21.5117 68.7471 21.5053 68.7506 21.4986C68.7739 21.4582 68.7972 21.417 68.8201 21.3755L68.8359 21.3466C68.8548 21.3122 68.8734 21.2774 68.8919 21.2422C68.8975 21.2325 68.903 21.2224 68.9081 21.2123C68.9302 21.17 68.9523 21.1273 68.9744 21.0839L68.9898 21.0536C69.0072 21.0184 69.025 20.9825 69.0423 20.9466L69.0613 20.9092C69.0826 20.865 69.1035 20.8201 69.1244 20.7748L69.1375 20.746C69.1548 20.7086 69.1718 20.6711 69.1888 20.6337L69.2089 20.5888C69.2287 20.5435 69.2484 20.4979 69.2673 20.4518C69.2709 20.4436 69.2744 20.435 69.2776 20.4268C69.2954 20.3845 69.3127 20.3414 69.3301 20.298L69.3498 20.2486C69.366 20.2074 69.3822 20.1659 69.398 20.1244L69.4098 20.0929C69.4284 20.0435 69.4466 19.993 69.4647 19.9432L69.4837 19.8901C69.4979 19.8504 69.5117 19.81 69.5255 19.7696C69.5306 19.7546 69.5358 19.7396 69.5405 19.7247C69.5579 19.673 69.5752 19.6203 69.5922 19.5675C69.5977 19.5492 69.6037 19.5301 69.6092 19.5128L69.6487 19.3897C69.6538 19.3718 69.6593 19.3523 69.6645 19.3362C69.6806 19.2819 69.6968 19.2266 69.7122 19.1708C69.7174 19.1532 69.7221 19.1352 69.7268 19.1173C69.7387 19.0742 69.7505 19.0312 69.762 18.9874C69.7671 18.9676 69.7722 18.9477 69.7777 18.9279C69.7924 18.8703 69.807 18.8123 69.8212 18.7535L69.833 18.7045C69.8441 18.6577 69.8551 18.6105 69.8658 18.563L69.88 18.4994C69.8934 18.4384 69.9068 18.3774 69.9195 18.3153C69.9222 18.3033 69.9246 18.2909 69.927 18.2778C69.938 18.2243 69.9487 18.1701 69.9589 18.1158C69.9633 18.0937 69.9672 18.0716 69.9716 18.0496C69.9818 17.9938 69.9917 17.9373 70.0016 17.8815C70.0035 17.8695 70.0059 17.8579 70.0079 17.8463C70.0189 17.7805 70.0297 17.7141 70.0403 17.6472C70.0438 17.6248 70.0474 17.6023 70.0505 17.5795C70.0588 17.5252 70.0667 17.4706 70.0746 17.4152L70.0817 17.3643C70.0912 17.2955 70.1003 17.2262 70.1089 17.1559C70.1117 17.1338 70.1141 17.1117 70.1168 17.0892C70.1237 17.0334 70.13 16.9772 70.1358 16.9208C70.1382 16.9006 70.1405 16.8808 70.1425 16.8606C70.1501 16.7882 70.1572 16.7153 70.1638 16.6417C70.1638 16.6211 70.1674 16.6005 70.1689 16.5795C70.1741 16.5204 70.1792 16.4609 70.1836 16.401C70.1836 16.3789 70.1871 16.3569 70.1887 16.3348C70.1942 16.2584 70.1993 16.1816 70.2041 16.1042C70.2041 16.0867 70.2041 16.0668 70.2068 16.0511C70.2104 15.9867 70.2139 15.922 70.2167 15.8569C70.2167 15.8333 70.2167 15.8097 70.2199 15.7861C70.223 15.7057 70.2262 15.6248 70.2286 15.5429C70.2286 15.5316 70.2286 15.52 70.2286 15.5084C70.2307 15.4356 70.2322 15.362 70.2333 15.2876C70.2333 15.2633 70.2333 15.239 70.2333 15.2147C70.2333 15.1348 70.2333 15.0545 70.2333 14.9737V14.9549C70.2333 14.8689 70.2333 14.7817 70.2333 14.693V14.6181C70.2333 14.5433 70.2301 14.4647 70.2282 14.3868V14.3445C70.2254 14.2547 70.2218 14.1638 70.2183 14.0725C70.2183 14.0489 70.2159 14.0249 70.2151 14.0014C70.2117 13.9245 70.2078 13.8472 70.2033 13.7693C70.2033 13.7502 70.2033 13.7319 70.2001 13.7113C70.1946 13.6178 70.1886 13.5235 70.182 13.4284L70.1772 13.3622C70.1713 13.2828 70.1654 13.2031 70.1587 13.1226C70.1587 13.0994 70.1551 13.0762 70.1532 13.053C70.1449 12.9557 70.1358 12.8573 70.1263 12.7585C70.1263 12.7398 70.1224 12.7211 70.1208 12.702C70.1125 12.6178 70.1034 12.5328 70.0943 12.4471C70.0916 12.4213 70.0888 12.3959 70.0857 12.37C70.0746 12.2682 70.0628 12.1661 70.0501 12.0624C70.0501 12.0497 70.0466 12.037 70.045 12.025C70.0337 11.9322 70.0217 11.8389 70.0091 11.7451C70.0051 11.7174 70.0016 11.6897 69.9976 11.662C69.9829 11.5557 69.9678 11.4485 69.9522 11.3405C68.3732 0.684277 57.1837 2.41366 57.1837 2.41366L57.5421 4.70328L50.7749 11.4808L51.0706 14.0979L53.6341 15.5949C53.7484 15.3195 53.8951 15.0573 54.0715 14.8131C55.7255 13.0044 58.9344 11.5845 59.853 11.29C60.0369 11.2312 60.1415 11.2016 60.1415 11.2016C55.7476 16.593 56.2473 22.7695 56.4431 24.2418C56.2394 24.2792 56.0819 24.5124 56.0819 24.7968C56.0819 25.1067 56.2686 25.3582 56.4988 25.3582H57.9116C55.5619 26.2906 53.6968 28.0665 52.7234 30.2982C52.7222 30.3012 52.7209 30.3042 52.7194 30.3072C52.6476 30.4728 52.5808 30.6409 52.5189 30.8113C52.519 30.813 52.519 30.8148 52.5189 30.8165C52.5023 30.8629 52.4861 30.9093 52.4704 30.9561C52.4644 30.9729 52.4585 30.9898 52.453 31.007C52.4388 31.0489 52.4256 31.0912 52.4135 31.1339C52.4064 31.1556 52.3997 31.1777 52.393 31.1994C52.3803 31.2394 52.3681 31.2798 52.3563 31.3202L52.335 31.3951C52.3239 31.4325 52.3128 31.4726 52.3026 31.5115C52.2951 31.5392 52.288 31.5665 52.2809 31.5942C52.2714 31.6316 52.2615 31.669 52.2525 31.7065C52.2434 31.7439 52.2347 31.7813 52.226 31.821C52.2173 31.8606 52.2063 31.9071 52.1968 31.9505H51.6335C51.5252 31.9482 51.4175 31.9665 51.3167 32.0042C51.2159 32.0419 51.1241 32.0984 51.0466 32.1702C50.9692 32.242 50.9077 32.3278 50.8656 32.4225C50.8236 32.5172 50.802 32.6189 50.802 32.7216C50.802 32.8243 50.8236 32.926 50.8656 33.0207C50.9077 33.1154 50.9692 33.2011 51.0466 33.273C51.1241 33.3448 51.2159 33.4012 51.3167 33.439C51.4175 33.4767 51.5252 33.495 51.6335 33.4927H71.5983C71.7067 33.495 71.8144 33.4767 71.9151 33.439C72.0159 33.4012 72.1077 33.3448 72.1852 33.273C72.2626 33.2011 72.3242 33.1154 72.3662 33.0207C72.4082 32.926 72.4298 32.8243 72.4298 32.7216C72.4298 32.6189 72.4082 32.5172 72.3662 32.4225C72.3242 32.3278 72.2626 32.242 72.1852 32.1702C72.1077 32.0984 72.0159 32.0419 71.9151 32.0042C71.8144 31.9665 71.7067 31.9482 71.5983 31.9505L71.5912 31.9437Z" fill="#595653"/>
<path d="M94.9784 31.9437H94.4155C94.4155 31.9377 94.4128 31.9318 94.4116 31.9261L94.3962 31.8573C94.3863 31.812 94.3757 31.7671 94.3646 31.7226C94.3599 31.7016 94.3547 31.6806 94.3496 31.6597C94.335 31.6009 94.3196 31.5422 94.3038 31.4834L94.2991 31.4666C94.2817 31.4029 94.2635 31.3396 94.2446 31.2765L94.2256 31.2155C94.2126 31.172 94.1988 31.129 94.1862 31.086C94.1787 31.0624 94.1708 31.0392 94.1633 31.016C94.1495 30.9744 94.1352 30.9329 94.1206 30.8917C94.1131 30.87 94.1052 30.8479 94.0977 30.8266C94.0793 30.775 94.0604 30.7237 94.0409 30.6728C94.0366 30.6619 94.033 30.6515 94.0287 30.6406C94.0058 30.5807 93.9817 30.5212 93.9572 30.4617C93.9485 30.44 93.9395 30.4187 93.9304 30.3974C93.9138 30.3599 93.8972 30.3188 93.8802 30.2798L93.8483 30.2076C93.8317 30.1702 93.8147 30.1328 93.7973 30.0953C93.7867 30.0721 93.7756 30.0486 93.7646 30.0254C93.7444 29.9823 93.7251 29.9397 93.7026 29.8974C93.6943 29.8813 93.6868 29.8648 93.6785 29.8483C93.6505 29.7926 93.6217 29.7361 93.5925 29.6822L93.553 29.6122L93.4973 29.5108L93.4539 29.4359C93.4358 29.4045 93.4176 29.373 93.399 29.3416C93.3844 29.3162 93.3694 29.2907 93.3544 29.2668C93.3339 29.2327 93.315 29.1994 93.2925 29.1657L93.2356 29.0744C93.2088 29.0325 93.1819 28.9902 93.1543 28.9487C93.1369 28.9225 93.1196 28.8966 93.1018 28.8708C93.084 28.845 93.0647 28.8154 93.0457 28.7881C93.0268 28.7608 93.0063 28.7335 92.9889 28.7065C92.9715 28.6796 92.9526 28.6553 92.934 28.6317C92.9155 28.6081 92.8946 28.5767 92.8744 28.5493L92.8188 28.4745C92.7793 28.4247 92.743 28.3749 92.7043 28.3248L92.6502 28.2563C92.6273 28.2275 92.6036 28.199 92.5803 28.1706L92.5282 28.1077C92.5041 28.0789 92.4797 28.0505 92.4552 28.0217L92.4039 27.9625L92.3273 27.8757L92.2819 27.8256C92.1876 27.7219 92.0908 27.6197 91.9918 27.5202L91.9483 27.4764L91.8575 27.3877L91.8129 27.345C91.7814 27.3147 91.7498 27.2848 91.7178 27.2552L91.685 27.2253C91.5733 27.1224 91.4585 27.0221 91.3416 26.9259L91.3096 26.8993C91.2736 26.8694 91.2373 26.8398 91.2007 26.8106L91.1644 26.7814C91.1249 26.7515 91.089 26.7219 91.0507 26.6923L91.0313 26.6777C90.9023 26.5789 90.77 26.4828 90.6366 26.3903L90.618 26.3772C90.5758 26.3484 90.5336 26.32 90.4909 26.2919L90.4629 26.2736C90.4195 26.2447 90.3757 26.2167 90.3318 26.1886L90.3243 26.1841C90.1791 26.0921 90.031 26.0039 89.8802 25.9195L89.8743 25.9158C89.8266 25.8892 89.7788 25.8634 89.731 25.8376L89.7101 25.8263C89.4559 25.6904 89.1948 25.5656 88.9269 25.4521L88.9103 25.445C88.8397 25.415 88.7686 25.3862 88.6968 25.3578H90.1096C90.3397 25.3578 90.5265 25.1067 90.5265 24.7964C90.5265 24.4862 90.3397 24.2351 90.1096 24.2351H89.6888C89.7148 24.1722 89.7437 24.1011 89.7748 24.021C90.1728 23.786 90.873 23.2852 91.5678 22.3653L91.5733 22.3582C91.626 22.2894 91.6777 22.2181 91.7285 22.1445L91.7387 22.1299C91.7893 22.0577 91.8398 21.9832 91.8895 21.9054L91.9029 21.8848C91.9266 21.8474 91.9503 21.81 91.974 21.7725C91.974 21.7725 91.974 21.7695 91.9768 21.7677C92.0012 21.7302 92.0253 21.6891 92.0494 21.649L92.0648 21.6232C92.0853 21.5888 92.1062 21.5536 92.1264 21.5181C92.1303 21.5117 92.1343 21.5053 92.1378 21.4986C92.1611 21.4582 92.1844 21.417 92.2073 21.3755L92.2231 21.3466C92.242 21.3122 92.2606 21.2774 92.2791 21.2422C92.2847 21.2325 92.2902 21.2224 92.2953 21.2123C92.3174 21.17 92.3395 21.1273 92.3616 21.0839L92.377 21.0536C92.3944 21.0184 92.4122 20.9825 92.4295 20.9466L92.4485 20.9092C92.4698 20.865 92.4907 20.8201 92.5116 20.7748L92.5247 20.746C92.542 20.7086 92.559 20.6711 92.576 20.6337L92.5961 20.5888C92.6159 20.5435 92.6356 20.4979 92.6545 20.4518C92.6581 20.4436 92.6616 20.435 92.6648 20.4268C92.6826 20.3845 92.6999 20.3414 92.7173 20.298L92.737 20.2486C92.7532 20.2074 92.7694 20.1659 92.7852 20.1244L92.7971 20.0929C92.8156 20.0435 92.8338 19.993 92.8519 19.9432L92.8709 19.8901C92.8851 19.8504 92.8989 19.81 92.9127 19.7696C92.9178 19.7546 92.923 19.7396 92.9277 19.7247C92.9451 19.673 92.9625 19.6203 92.9794 19.5675C92.985 19.5492 92.9909 19.5301 92.9964 19.5128L93.0359 19.3897C93.041 19.3718 93.0465 19.3523 93.0517 19.3362C93.0678 19.2819 93.084 19.2266 93.0994 19.1708C93.1046 19.1532 93.1093 19.1352 93.114 19.1173C93.1259 19.0742 93.1377 19.0312 93.1492 18.9874C93.1543 18.9676 93.1594 18.9477 93.165 18.9279C93.1796 18.8703 93.1942 18.8123 93.2084 18.7535L93.2202 18.7045C93.2313 18.6577 93.2423 18.6105 93.253 18.563L93.2672 18.4994C93.2806 18.4384 93.294 18.3774 93.3067 18.3153C93.3094 18.3033 93.3118 18.2909 93.3142 18.2778C93.3252 18.2243 93.3359 18.1701 93.3461 18.1158C93.3505 18.0937 93.3544 18.0716 93.3588 18.0496C93.369 17.9938 93.3789 17.9373 93.3888 17.8815C93.3908 17.8695 93.3931 17.8579 93.3951 17.8463C93.4061 17.7805 93.4169 17.7141 93.4275 17.6472C93.431 17.6248 93.4346 17.6023 93.4377 17.5795C93.446 17.5252 93.4539 17.4706 93.4618 17.4152L93.4689 17.3643C93.4784 17.2955 93.4875 17.2262 93.4962 17.1559C93.4989 17.1338 93.5013 17.1117 93.504 17.0892C93.5109 17.0334 93.5172 16.9772 93.523 16.9208C93.5254 16.9006 93.5277 16.8808 93.5297 16.8606C93.5373 16.7882 93.5444 16.7153 93.551 16.6417C93.551 16.6211 93.5546 16.6005 93.5562 16.5795C93.5613 16.5204 93.5664 16.4609 93.5708 16.401C93.5708 16.3789 93.5743 16.3569 93.5759 16.3348C93.5814 16.2584 93.5865 16.1816 93.5913 16.1042C93.5913 16.0867 93.5913 16.0668 93.594 16.0511C93.5976 15.9867 93.6012 15.922 93.6039 15.8569C93.6039 15.8333 93.6039 15.8097 93.6071 15.7861C93.6102 15.7057 93.6134 15.6248 93.6158 15.5429C93.6158 15.5316 93.6158 15.52 93.6158 15.5084C93.6179 15.4356 93.6194 15.362 93.6205 15.2876C93.6205 15.2633 93.6205 15.239 93.6205 15.2147C93.6205 15.1348 93.6205 15.0545 93.6205 14.9737V14.9549C93.6205 14.8689 93.6205 14.7817 93.6205 14.693V14.6181C93.6205 14.5433 93.6173 14.4647 93.6154 14.3868V14.3445C93.6126 14.2547 93.6091 14.1638 93.6055 14.0725C93.6055 14.0489 93.6031 14.0249 93.6023 14.0014C93.5989 13.9245 93.595 13.8472 93.5905 13.7693C93.5905 13.7502 93.5905 13.7319 93.5873 13.7113C93.5818 13.6178 93.5758 13.5235 93.5692 13.4284L93.5644 13.3622C93.5585 13.2828 93.5526 13.2031 93.5459 13.1226C93.5459 13.0994 93.5423 13.0762 93.5404 13.053C93.5321 12.9557 93.523 12.8573 93.5135 12.7585C93.5135 12.7398 93.5096 12.7211 93.508 12.702C93.4997 12.6178 93.4906 12.5328 93.4815 12.4471C93.4788 12.4213 93.476 12.3959 93.4729 12.37C93.4618 12.2682 93.45 12.1661 93.4373 12.0624C93.4373 12.0497 93.4338 12.037 93.4322 12.025C93.4209 11.9322 93.4089 11.8389 93.3963 11.7451C93.3923 11.7174 93.3888 11.6897 93.3848 11.662C93.3701 11.5557 93.355 11.4485 93.3394 11.3405C91.7604 0.684277 80.5709 2.41366 80.5709 2.41366L80.9293 4.70328L74.1621 11.4808L74.4578 14.0979L77.0213 15.5949C77.1356 15.3195 77.2823 15.0573 77.4587 14.8131C79.1127 13.0044 82.3216 11.5845 83.2402 11.29C83.4241 11.2312 83.5287 11.2016 83.5287 11.2016C79.1348 16.593 79.6345 22.7695 79.8303 24.2418C79.6266 24.2792 79.4691 24.5124 79.4691 24.7968C79.4691 25.1067 79.6558 25.3582 79.886 25.3582H81.2988C78.9491 26.2906 77.084 28.0665 76.1106 30.2982C76.1094 30.3012 76.1081 30.3042 76.1066 30.3072C76.0348 30.4728 75.968 30.6409 75.9061 30.8113C75.9062 30.813 75.9062 30.8148 75.9061 30.8165C75.8895 30.8629 75.8734 30.9093 75.8576 30.9561C75.8516 30.9729 75.8457 30.9898 75.8402 31.007C75.826 31.0489 75.8128 31.0912 75.8007 31.1339C75.7936 31.1556 75.7869 31.1777 75.7802 31.1994C75.7676 31.2394 75.7553 31.2798 75.7435 31.3202L75.7222 31.3951C75.7111 31.4325 75.7001 31.4726 75.6898 31.5115C75.6823 31.5392 75.6752 31.5665 75.6681 31.5942C75.6586 31.6316 75.6487 31.669 75.6397 31.7065C75.6306 31.7439 75.6219 31.7813 75.6132 31.821C75.6045 31.8606 75.5935 31.9071 75.584 31.9505H75.0207C74.9124 31.9482 74.8047 31.9665 74.7039 32.0042C74.6031 32.0419 74.5113 32.0984 74.4339 32.1702C74.3564 32.242 74.2949 32.3278 74.2528 32.4225C74.2108 32.5172 74.1892 32.6189 74.1892 32.7216C74.1892 32.8243 74.2108 32.926 74.2528 33.0207C74.2949 33.1154 74.3564 33.2011 74.4339 33.273C74.5113 33.3448 74.6031 33.4012 74.7039 33.439C74.8047 33.4767 74.9124 33.495 75.0207 33.4927H94.9855C95.0939 33.495 95.2016 33.4767 95.3023 33.439C95.4031 33.4012 95.4949 33.3448 95.5724 33.273C95.6498 33.2011 95.7114 33.1154 95.7534 33.0207C95.7954 32.926 95.817 32.8243 95.817 32.7216C95.817 32.6189 95.7954 32.5172 95.7534 32.4225C95.7114 32.3278 95.6498 32.242 95.5724 32.1702C95.4949 32.0984 95.4031 32.0419 95.3023 32.0042C95.2016 31.9665 95.0939 31.9482 94.9855 31.9505L94.9784 31.9437Z" fill="#595653"/>
<path d="M103.335 15V3.34411H106.332V7.95652H107.164L110.728 3.34411H113.991L109.496 8.78908L114.158 15H110.661L107.164 10.0546H106.332V15H103.335ZM115.823 15.2165C115.734 15.2165 115.607 15.2109 115.44 15.1998C115.285 15.1998 115.163 15.1887 115.074 15.1665V12.5356C115.107 12.5467 115.19 12.5523 115.324 12.5523C115.546 12.5523 115.734 12.5245 115.89 12.469C116.056 12.4024 116.195 12.2692 116.306 12.0694C116.417 11.8585 116.511 11.5532 116.589 11.1536C116.678 10.7539 116.739 10.2211 116.772 9.55504C116.806 8.87788 116.822 8.02867 116.822 7.00739V3.34411H125.647V15H122.633V5.79185H119.62V7.34042C119.62 8.72802 119.564 9.89361 119.453 10.8372C119.342 11.7697 119.176 12.5245 118.954 13.1018C118.743 13.679 118.482 14.123 118.171 14.4339C117.86 14.7336 117.505 14.9389 117.105 15.05C116.717 15.161 116.289 15.2165 115.823 15.2165ZM130.318 15.2165C130.195 15.2165 130.073 15.2109 129.951 15.1998C129.84 15.1998 129.74 15.1832 129.651 15.1499V12.6688C129.74 12.6799 129.829 12.691 129.918 12.7021C130.007 12.7132 130.112 12.7188 130.234 12.7188C130.556 12.7188 130.806 12.6966 130.984 12.6522C131.161 12.5967 131.3 12.5079 131.4 12.3858C131.5 12.2525 131.583 12.0749 131.65 11.8529L126.971 3.34411H130.018L133.115 9.25531L135.546 3.34411H138.477L134.58 12.1526C134.325 12.7299 134.07 13.2128 133.814 13.6013C133.57 13.9898 133.287 14.3062 132.965 14.5504C132.654 14.7835 132.282 14.95 131.849 15.05C131.428 15.161 130.917 15.2165 130.318 15.2165ZM139.808 15V3.34411H148.383V5.8085H142.805V7.54023H144.72C146.341 7.54023 147.534 7.87326 148.3 8.53931C149.077 9.19426 149.466 10.0768 149.466 11.1869C149.466 12.3858 149.077 13.3238 148.3 14.0009C147.534 14.667 146.341 15 144.72 15H139.808ZM142.805 12.5356H144.387C145.109 12.5356 145.619 12.4191 145.919 12.1859C146.219 11.9417 146.369 11.6087 146.369 11.1869C146.369 10.765 146.219 10.4376 145.919 10.2044C145.619 9.96022 145.109 9.83811 144.387 9.83811H142.805V12.5356ZM109.396 33V28.3543C109.107 28.543 108.724 28.7151 108.247 28.8705C107.781 29.0148 107.226 29.087 106.582 29.087C105.372 29.087 104.456 28.7872 103.834 28.1878C103.224 27.5772 102.918 26.6004 102.918 25.2572V21.3441H105.916V24.7576C105.916 25.4126 106.054 25.8844 106.332 26.173C106.609 26.4505 106.998 26.5893 107.497 26.5893C107.953 26.5893 108.336 26.5393 108.646 26.4394C108.957 26.3284 109.207 26.2118 109.396 26.0897V21.3441H112.41V33H109.396ZM114.734 33V21.3441H123.226V23.642H117.731V25.9232H122.726V28.0879H117.731V30.7021H123.226V33H114.734ZM128.213 33V23.8085H124.633V21.3441H134.791V23.8085H131.211V33H128.213ZM136.296 33V21.3441H139.293V25.2072H140.708C142.329 25.2072 143.522 25.5569 144.288 26.2562C145.065 26.9556 145.454 27.9047 145.454 29.1036C145.454 30.3025 145.065 31.2516 144.288 31.951C143.522 32.6503 142.329 33 140.708 33H136.296ZM139.293 30.5356H140.375C141.075 30.5356 141.58 30.4024 141.891 30.136C142.201 29.8696 142.357 29.5254 142.357 29.1036C142.357 28.6818 142.201 28.3376 141.891 28.0712C141.58 27.8048 141.075 27.6716 140.375 27.6716H139.293V30.5356ZM146.286 33V21.3441H149.284V33H146.286ZM151.614 33V21.3441H156.359C157.447 21.3441 158.341 21.5051 159.04 21.827C159.739 22.1378 160.256 22.593 160.589 23.1924C160.933 23.7807 161.105 24.4912 161.105 25.3238C161.105 26.1452 160.933 26.8557 160.589 27.4551C160.256 28.0546 159.739 28.5153 159.04 28.8372C158.341 29.148 157.447 29.3034 156.359 29.3034H154.611V33H151.614ZM154.611 26.839H156.026C156.792 26.839 157.33 26.7114 157.641 26.4561C157.952 26.2007 158.108 25.8233 158.108 25.3238C158.108 24.8242 157.952 24.4468 157.641 24.1915C157.33 23.9362 156.792 23.8085 156.026 23.8085H154.611V26.839ZM162.769 33V21.3441H171.261V23.642H165.766V25.9232H170.761V28.0879H165.766V30.7021H171.261V33H162.769ZM172.422 33L176.219 26.9223L172.589 21.3441H175.903L178.184 24.8742L180.498 21.3441H183.745L180.132 26.889L183.912 33H180.565L178.134 28.9204L175.703 33H172.422ZM189.652 33V21.3441H192.649V25.9565H193.482L197.045 21.3441H200.309L195.813 26.7891L200.475 33H196.979L193.482 28.0546H192.649V33H189.652ZM206.979 33.2165C206.224 33.2165 205.503 33.1055 204.814 32.8834C204.126 32.6614 203.521 32.3117 202.999 31.8344C202.478 31.3571 202.067 30.741 201.767 29.9861C201.467 29.2202 201.318 28.3099 201.318 27.2553V26.9223C201.318 25.901 201.467 25.024 201.767 24.2914C202.067 23.5587 202.478 22.9593 202.999 22.4931C203.521 22.0268 204.126 21.6827 204.814 21.4607C205.503 21.2387 206.224 21.1276 206.979 21.1276C207.756 21.1276 208.483 21.2387 209.16 21.4607C209.837 21.6827 210.437 22.0268 210.959 22.4931C211.48 22.9593 211.891 23.5587 212.191 24.2914C212.491 25.024 212.64 25.901 212.64 26.9223V27.2553C212.64 28.3099 212.491 29.2202 212.191 29.9861C211.891 30.741 211.48 31.3571 210.959 31.8344C210.437 32.3117 209.837 32.6614 209.16 32.8834C208.483 33.1055 207.756 33.2165 206.979 33.2165ZM206.962 30.7188C207.418 30.7188 207.839 30.6189 208.228 30.4191C208.616 30.2081 208.927 29.8585 209.16 29.37C209.405 28.8705 209.527 28.1656 209.527 27.2553V26.9223C209.527 26.0564 209.405 25.3848 209.16 24.9075C208.927 24.4301 208.616 24.0971 208.228 23.9084C207.839 23.7197 207.418 23.6253 206.962 23.6253C206.529 23.6253 206.119 23.7197 205.73 23.9084C205.342 24.0971 205.025 24.4301 204.781 24.9075C204.537 25.3848 204.415 26.0564 204.415 26.9223V27.2553C204.415 28.1656 204.537 28.8705 204.781 29.37C205.025 29.8585 205.342 30.2081 205.73 30.4191C206.119 30.6189 206.529 30.7188 206.962 30.7188ZM214.548 33V21.3441H217.545V25.7734H221.874V21.3441H224.871V33H221.874V28.2377H217.545V33H214.548ZM227.199 33V21.3441H235.691V23.642H230.196V25.9232H235.191V28.0879H230.196V30.7021H235.691V33H227.199ZM237.606 33V21.3441H240.603V28.3376L245.182 21.3441H247.929V33H244.932V26.0065L240.353 33H237.606ZM242.768 20.6947C241.99 20.6947 241.352 20.5893 240.853 20.3783C240.364 20.1563 240.003 19.8344 239.77 19.4126C239.548 18.9907 239.437 18.4634 239.437 17.8307H241.868C241.868 18.2969 241.935 18.6133 242.068 18.7798C242.212 18.9352 242.446 19.0129 242.768 19.0129C243.089 19.0129 243.317 18.9352 243.45 18.7798C243.595 18.6133 243.667 18.2969 243.667 17.8307H246.098C246.098 18.4634 245.981 18.9907 245.748 19.4126C245.526 19.8344 245.171 20.1563 244.682 20.3783C244.194 20.5893 243.556 20.6947 242.768 20.6947Z" fill="#595653"/>
</g>
<defs>
<filter id="filter0_d_168_1271" x="0" y="2.30981" width="251.929" height="39.1831" filterUnits="userSpaceOnUse" color-interpolation-filters="sRGB">
<feFlood flood-opacity="0" result="BackgroundImageFix"/>
<feColorMatrix in="SourceAlpha" type="matrix" values="0 0 0 0 0 0 0 0 0 0 0 0 0 0 0 0 0 0 127 0" result="hardAlpha"/>
<feOffset dy="4"/>
<feGaussianBlur stdDeviation="2"/>
<feComposite in2="hardAlpha" operator="out"/>
<feColorMatrix type="matrix" values="0 0 0 0 0 0 0 0 0 0 0 0 0 0 0 0 0 0 0.25 0"/>
<feBlend mode="normal" in2="BackgroundImageFix" result="effect1_dropShadow_168_1271"/>
<feBlend mode="normal" in="SourceGraphic" in2="effect1_dropShadow_168_1271" result="shape"/>
</filter>
</defs>
</svg>
